name rise36.2859peak64.2979fall75.1499.mot
datacolumns 19
datarows 29
range 23.77990900000000 23.82657800000000
endheader
time	ground_force1_vx	ground_force1_vy	ground_force1_vz	ground_force1_px	ground_force1_py	ground_force1_pz	ground_force2_vx	ground_force2_vy	ground_force2_vz	ground_force2_px	ground_force2_py	ground_force2_pz	ground_torque1_x	ground_torque1_y	ground_torque1_z	ground_torque2_x	ground_torque2_y	ground_torque2_z	
23.77990900000000	-9.86513400000000	42.73467300000000	-10.40002600000000	0.31604000000000	0.00000000000000	0.11101100000000	-40.19239400000000	794.52544399999999	-61.42158100000000	0.16478300000000	0.00000000000000	-0.08710200000000	0.00000000000000	-6.44947000000000	0.00000000000000	0.00000000000000	-25.28529800000000	0.00000000000000	
23.78157700000000	-10.86792500000000	50.05292900000000	-11.68053000000000	0.31962700000000	0.00000000000000	0.11205800000000	-40.60590500000000	791.57674599999996	-61.02488700000000	0.16393000000000	0.00000000000000	-0.08702100000000	0.00000000000000	-7.31440500000000	0.00000000000000	0.00000000000000	-25.13822400000000	0.00000000000000	
23.78324800000000	-11.69846900000000	57.45206100000000	-12.83871700000000	0.32310600000000	0.00000000000000	0.11299800000000	-41.03396500000000	788.51221699999996	-60.60144000000000	0.16307900000000	0.00000000000000	-0.08693600000000	0.00000000000000	-8.12162900000000	0.00000000000000	0.00000000000000	-24.98903200000000	0.00000000000000	
23.78491200000000	-12.33054800000000	64.83511600000000	-13.84694800000000	0.32649300000000	0.00000000000000	0.11384900000000	-41.47676100000000	785.33257700000001	-60.15148300000000	0.16223200000000	0.00000000000000	-0.08684600000000	0.00000000000000	-8.85334300000000	0.00000000000000	0.00000000000000	-24.83792200000000	0.00000000000000	
23.78657600000000	-12.74855000000000	72.12871600000000	-14.68695800000000	0.32980100000000	0.00000000000000	0.11462300000000	-41.93442100000000	782.03853400000003	-59.67529700000000	0.16138900000000	0.00000000000000	-0.08675200000000	0.00000000000000	-9.49705100000000	0.00000000000000	0.00000000000000	-24.68508800000000	0.00000000000000	
23.78824100000000	-12.94734600000000	79.28527900000000	-15.34996500000000	0.33304100000000	0.00000000000000	0.11533100000000	-42.40701200000000	778.63077299999998	-59.17320200000000	0.16055200000000	0.00000000000000	-0.08665200000000	0.00000000000000	-10.04577700000000	0.00000000000000	0.00000000000000	-24.53071700000000	0.00000000000000	
23.78991100000000	-12.93131700000000	86.28275700000000	-15.83598100000000	0.33622100000000	0.00000000000000	0.11598300000000	-42.89454200000000	775.10995100000002	-58.64555200000000	0.15972200000000	0.00000000000000	-0.08654700000000	0.00000000000000	-10.49779600000000	0.00000000000000	0.00000000000000	-24.37499200000000	0.00000000000000	
23.79157800000000	-12.71278500000000	93.12231400000000	-16.15253500000000	0.33934600000000	0.00000000000000	0.11658600000000	-43.39695100000000	771.47669599999995	-58.09274000000000	0.15890100000000	0.00000000000000	-0.08643600000000	0.00000000000000	-10.85598200000000	0.00000000000000	0.00000000000000	-24.21808600000000	0.00000000000000	
23.79324700000000	-12.31005000000000	99.82448599999999	-16.31298400000000	0.34242000000000	0.00000000000000	0.11714400000000	-43.91411800000000	767.73159399999997	-57.51519400000000	0.15809000000000	0.00000000000000	-0.08632100000000	0.00000000000000	-11.12688900000000	0.00000000000000	0.00000000000000	-24.06016600000000	0.00000000000000	
23.79491000000000	-11.74528600000000	106.42442600000000	-16.33465500000000	0.34544800000000	0.00000000000000	0.11766500000000	-44.44584900000000	763.87519299999997	-56.91337500000000	0.15728900000000	0.00000000000000	-0.08620000000000	0.00000000000000	-11.31968300000000	0.00000000000000	0.00000000000000	-23.90138700000000	0.00000000000000	
23.79657400000000	-11.04247800000000	112.96675900000000	-16.23697700000000	0.34843200000000	0.00000000000000	0.11815200000000	-44.99188300000000	759.90799200000004	-56.28778000000000	0.15650200000000	0.00000000000000	-0.08607300000000	0.00000000000000	-11.44504500000000	0.00000000000000	0.00000000000000	-23.74189400000000	0.00000000000000	
23.79824600000000	-10.22557300000000	119.50056200000000	-16.03976600000000	0.35137200000000	0.00000000000000	0.11860900000000	-45.55188800000000	755.83044500000005	-55.63893700000000	0.15572700000000	0.00000000000000	-0.08594100000000	0.00000000000000	-11.51413200000000	0.00000000000000	0.00000000000000	-23.58182200000000	0.00000000000000	
23.79990700000000	-9.31694500000000	126.07483000000001	-15.76178400000000	0.35427100000000	0.00000000000000	0.11903800000000	-46.12545800000000	751.64295100000004	-54.96740600000000	0.15496800000000	0.00000000000000	-0.08580300000000	0.00000000000000	-11.53766900000000	0.00000000000000	0.00000000000000	-23.42129200000000	0.00000000000000	
23.80157300000000	-8.33625100000000	132.73470100000000	-15.41961300000000	0.35712900000000	0.00000000000000	0.11944400000000	-46.71211100000000	747.34585700000002	-54.27378200000000	0.15422500000000	0.00000000000000	-0.08565900000000	0.00000000000000	-11.52523200000000	0.00000000000000	0.00000000000000	-23.26041400000000	0.00000000000000	
23.80324100000000	-7.29968500000000	139.51861099999999	-15.02690600000000	0.35994500000000	0.00000000000000	0.11982700000000	-47.31129100000000	742.93945399999996	-53.55868400000000	0.15350000000000	0.00000000000000	-0.08551000000000	0.00000000000000	-11.48473100000000	0.00000000000000	0.00000000000000	-23.09928200000000	0.00000000000000	
23.80491100000000	-6.21963000000000	146.45641599999999	-14.59398000000000	0.36272000000000	0.00000000000000	0.12019000000000	-47.92236500000000	738.42397700000004	-52.82276700000000	0.15279300000000	0.00000000000000	-0.08535500000000	0.00000000000000	-11.42211100000000	0.00000000000000	0.00000000000000	-22.93797800000000	0.00000000000000	
23.80657400000000	-5.10465500000000	153.56846700000000	-14.12774200000000	0.36545400000000	0.00000000000000	0.12053600000000	-48.54462200000000	733.79960600000004	-52.06670900000000	0.15210600000000	0.00000000000000	-0.08519400000000	0.00000000000000	-11.34125400000000	0.00000000000000	0.00000000000000	-22.77656900000000	0.00000000000000	
23.80824200000000	-3.95979500000000	160.86551600000001	-13.63187500000000	0.36814600000000	0.00000000000000	0.12086500000000	-49.17727000000000	729.06646300000000	-51.29121900000000	0.15144000000000	0.00000000000000	-0.08502700000000	0.00000000000000	-11.24404600000000	0.00000000000000	0.00000000000000	-22.61510300000000	0.00000000000000	
23.80990900000000	-2.78705000000000	168.34932400000000	-13.10724100000000	0.37079400000000	0.00000000000000	0.12117900000000	-49.81944100000000	724.22461699999997	-50.49703100000000	0.15079600000000	0.00000000000000	-0.08485400000000	0.00000000000000	-11.13058800000000	0.00000000000000	0.00000000000000	-22.45361700000000	0.00000000000000	
23.81157900000000	-1.58601100000000	176.01378900000000	-12.55241700000000	0.37339800000000	0.00000000000000	0.12147800000000	-50.47018500000000	719.27408000000003	-49.68490500000000	0.15017500000000	0.00000000000000	-0.08467500000000	0.00000000000000	-10.99950700000000	0.00000000000000	0.00000000000000	-22.29212800000000	0.00000000000000	
23.81324500000000	-0.35455700000000	183.84641800000000	-11.96430600000000	0.37595700000000	0.00000000000000	0.12176500000000	-51.12847400000000	714.21481700000004	-48.85562600000000	0.14957800000000	0.00000000000000	-0.08449000000000	0.00000000000000	-10.84831600000000	0.00000000000000	0.00000000000000	-22.13063900000000	0.00000000000000	
23.81490600000000	0.91045200000000	191.82996199999999	-11.33876300000000	0.37847000000000	0.00000000000000	0.12204000000000	-51.79320000000000	709.04674100000000	-48.01000200000000	0.14900500000000	0.00000000000000	-0.08430000000000	0.00000000000000	-10.67380600000000	0.00000000000000	0.00000000000000	-21.96913500000000	0.00000000000000	
23.81657300000000	2.21253500000000	199.94407100000001	-10.67118800000000	0.38093500000000	0.00000000000000	0.12230500000000	-52.46317600000000	703.76972300000000	-47.14886200000000	0.14845800000000	0.00000000000000	-0.08410300000000	0.00000000000000	-10.47241400000000	0.00000000000000	0.00000000000000	-21.80758500000000	0.00000000000000	
23.81824100000000	3.55503300000000	208.16684900000001	-9.95704700000000	0.38335100000000	0.00000000000000	0.12255800000000	-53.13713600000000	698.38359200000002	-46.27305900000000	0.14793700000000	0.00000000000000	-0.08390100000000	0.00000000000000	-10.24056900000000	0.00000000000000	0.00000000000000	-21.64594100000000	0.00000000000000	
23.81991400000000	4.94067400000000	216.47619800000001	-9.19229300000000	0.38571600000000	0.00000000000000	0.12280200000000	-53.81374100000000	692.88814500000001	-45.38346400000000	0.14744300000000	0.00000000000000	-0.08369300000000	0.00000000000000	-9.97496900000000	0.00000000000000	0.00000000000000	-21.48413800000000	0.00000000000000	
23.82157400000000	6.37125800000000	224.85090700000001	-8.37368500000000	0.38802900000000	0.00000000000000	0.12303700000000	-54.49157200000000	687.28314799999998	-44.48096700000000	0.14697700000000	0.00000000000000	-0.08347900000000	0.00000000000000	-9.67280400000000	0.00000000000000	0.00000000000000	-21.32209500000000	0.00000000000000	
23.82324300000000	7.84746300000000	233.27146300000001	-7.49899100000000	0.39028900000000	0.00000000000000	0.12326400000000	-55.16914100000000	681.56835000000001	-43.56647500000000	0.14653900000000	0.00000000000000	-0.08326000000000	0.00000000000000	-9.33190500000000	0.00000000000000	0.00000000000000	-21.15971500000000	0.00000000000000	
23.82490700000000	9.36877700000000	241.72056000000001	-6.56708400000000	0.39249300000000	0.00000000000000	0.12348200000000	-55.84488800000000	675.74348499999996	-42.64091200000000	0.14612900000000	0.00000000000000	-0.08303500000000	0.00000000000000	-8.95082500000000	0.00000000000000	0.00000000000000	-20.99688600000000	0.00000000000000	
23.82657800000000	10.93351200000000	250.18334800000000	-5.57795500000000	0.39464000000000	0.00000000000000	0.12369300000000	-56.51718200000000	669.80828499999996	-41.70521500000000	0.14574800000000	0.00000000000000	-0.08280400000000	0.00000000000000	-8.52886400000000	0.00000000000000	0.00000000000000	-20.83348100000000	0.00000000000000	
